<svg xmlns="http://www.w3.org/2000/svg" version="1.1" xmlns:xlink="http://www.w3.org/1999/xlink" xmlns:svgjs="http://svgjs.com/svgjs" width="64" height="64" x="0" y="0" viewBox="0 0 32 32" style="enable-background:new 0 0 512 512" xml:space="preserve" class=""><g><path d="M8.5 14C4.794 14 2 15.72 2 18v8c0 2.28 2.794 4 6.5 4s6.5-1.72 6.5-4v-8c0-2.28-2.794-4-6.5-4zM13 26c0 .815-1.753 2-4.5 2S4 26.815 4 26v-1.067C5.151 25.599 6.718 26 8.5 26s3.349-.401 4.5-1.067zm0-4c0 .815-1.753 2-4.5 2S4 22.815 4 22v-1.067C5.151 21.599 6.718 22 8.5 22s3.349-.401 4.5-1.067zm-4.5-2C5.753 20 4 18.815 4 18s1.753-2 4.5-2 4.5 1.185 4.5 2-1.753 2-4.5 2zM23.5 14c-3.706 0-6.5 1.72-6.5 4v8c0 2.28 2.794 4 6.5 4s6.5-1.72 6.5-4v-8c0-2.28-2.794-4-6.5-4zM28 26c0 .815-1.753 2-4.5 2S19 26.815 19 26v-1.067c1.151.666 2.718 1.067 4.5 1.067s3.349-.401 4.5-1.067zm0-4c0 .815-1.753 2-4.5 2S19 22.815 19 22v-1.067c1.151.666 2.718 1.067 4.5 1.067s3.349-.401 4.5-1.067zm-4.5-2c-2.747 0-4.5-1.185-4.5-2s1.753-2 4.5-2 4.5 1.185 4.5 2-1.753 2-4.5 2zM20.707 8.707l-3.999 3.999a1.001 1.001 0 0 1-1.416 0l-3.999-3.999a.999.999 0 1 1 1.414-1.414L15 9.586V3a1 1 0 1 1 2 0v6.586l2.293-2.293a.999.999 0 1 1 1.414 1.414z" fill="#f5ff08" data-original="#000000" class=""></path></g></svg>